ffmpeg started on 2025-06-04 at 20:41:42
Report written to "D:\Convert\FFMetrics\reports\ssim_report-6.txt"
Log level: 32
Command line:
ffmpeg -hide_banner -nostdin -i "G:\\\xc0\xed\xe8\xec\xe5\\\xce\xed\xe3\xee\xe8\xed\xe3\xe8\\!_36_\xce\xf1\xe5\xed\xfc_2024\\DreamCast\\\xc4\xe5\xf2\xf1\xea\xe0\xff \xc4\xe5\xeb\xe8\xea\xee\\[DC] Delicos Nursery - 05_Telegram_HEVC.mkv" -i "G:\\\xc0\xed\xe8\xec\xe5\\\xce\xed\xe3\xee\xe8\xed\xe3\xe8\\!_36_\xce\xf1\xe5\xed\xfc_2024\\DreamCast\\\xc4\xe5\xf2\xf1\xea\xe0\xff \xc4\xe5\xeb\xe8\xea\xee\\[DC] Delicos Nursery - 05_Telegram.mp4" -lavfi "[0:v]settb=AVTB,setpts=PTS-STARTPTS,format=pix_fmts=yuv420p10,fps=24000/1001,scale=1920:1080:flags=bicubic[main];[1:v]settb=AVTB,setpts=PTS-STARTPTS,format=pix_fmts=yuv420p,fps=24000/1001,scale=1920:1080:flags=bicubic[ref];[main][ref]ssim=eof_action=endall:stats_file='D\\:/Convert/FFMetrics/logs/ssim_logfile-6.txt'" -f null -
Input #0, matroska,webm, from 'G:\Аниме\Онгоинги\!_36_Осень_2024\DreamCast\Детская Делико\[DC] Delicos Nursery - 05_Telegram_HEVC.mkv':
  Metadata:
    COMPATIBLE_BRANDS: isomiso2avc1mp41
    MAJOR_BRAND     : isom
    MINOR_VERSION   : 512
    ENCODER         : Lavf61.7.100
  Duration: 00:23:46.65, start: -0.021000, bitrate: 1407 kb/s
  Stream #0:0: Video: hevc (Main 10), yuv420p10le(tv, bt709, progressive), 1920x1080 [SAR 1:1 DAR 16:9], 23.98 fps, 23.98 tbr, 1k tbn (default)
      Metadata:
        HANDLER_NAME    : VideoHandler
        VENDOR_ID       : [0][0][0][0]
        ENCODER         : Lavc61.19.100 libx265
        BPS             : 1209972
        DURATION        : 00:23:46.549708333
        NUMBER_OF_FRAMES: 34203
        NUMBER_OF_BYTES : 215760714
        _STATISTICS_WRITING_APP: mkvpropedit v66.0.0 ('Josie') 64-bit
        _STATISTICS_WRITING_DATE_UTC: 2025-05-30 12:27:03
        _STATISTICS_TAGS: BPS DURATION NUMBER_OF_FRAMES NUMBER_OF_BYTES
  Stream #0:1: Audio: aac (LC), 48000 Hz, stereo, fltp (default)
      Metadata:
        HANDLER_NAME    : SoundHandler
        VENDOR_ID       : [0][0][0][0]
        ENCODER         : Lavc61.19.100 aac
        BPS             : 193369
        DURATION        : 00:23:46.645000000
        NUMBER_OF_FRAMES: 66875
        NUMBER_OF_BYTES : 34483619
        _STATISTICS_WRITING_APP: mkvpropedit v66.0.0 ('Josie') 64-bit
        _STATISTICS_WRITING_DATE_UTC: 2025-05-30 12:27:03
        _STATISTICS_TAGS: BPS DURATION NUMBER_OF_FRAMES NUMBER_OF_BYTES
Input #1, mov,mp4,m4a,3gp,3g2,mj2, from 'G:\Аниме\Онгоинги\!_36_Осень_2024\DreamCast\Детская Делико\[DC] Delicos Nursery - 05_Telegram.mp4':
  Metadata:
    major_brand     : isom
    minor_version   : 512
    compatible_brands: isomiso2avc1mp41
    encoder         : Lavf61.1.100
  Duration: 00:23:46.62, start: 0.000000, bitrate: 3737 kb/s
  Stream #1:0[0x1](und): Video: h264 (High) (avc1 / 0x31637661), yuv420p(tv, bt709, progressive), 1920x1080 [SAR 1:1 DAR 16:9], 3589 kb/s, 23.98 fps, 23.98 tbr, 24k tbn (default)
      Metadata:
        handler_name    : VideoHandler
        vendor_id       : [0][0][0][0]
        encoder         : Lavc61.3.100 h264_qsv
  Stream #1:1[0x2](und): Audio: aac (HE-AACv2) (mp4a / 0x6134706D), 48000 Hz, stereo, fltp, 144 kb/s (default)
      Metadata:
        handler_name    : SoundHandler
        vendor_id       : [0][0][0][0]
Stream mapping:
  Stream #0:0 (hevc) -> settb:default
  Stream #1:0 (h264) -> settb:default
  ssim:default -> Stream #0:0 (wrapped_avframe)
  Stream #0:1 -> #0:1 (aac (native) -> pcm_s16le (native))
Output #0, null, to 'pipe:':
  Metadata:
    COMPATIBLE_BRANDS: isomiso2avc1mp41
    MAJOR_BRAND     : isom
    MINOR_VERSION   : 512
    encoder         : Lavf61.7.100
  Stream #0:0: Video: wrapped_avframe, yuv420p10le(tv, bt709, progressive), 1920x1080 [SAR 1:1 DAR 16:9], q=2-31, 200 kb/s, 23.98 fps, 23.98 tbn
      Metadata:
        encoder         : Lavc61.19.100 wrapped_avframe
  Stream #0:1: Audio: pcm_s16le, 48000 Hz, stereo, s16, 1536 kb/s (default)
      Metadata:
        HANDLER_NAME    : SoundHandler
        VENDOR_ID       : [0][0][0][0]
        _STATISTICS_TAGS: BPS DURATION NUMBER_OF_FRAMES NUMBER_OF_BYTES
        BPS             : 193369
        DURATION        : 00:23:46.645000000
        NUMBER_OF_FRAMES: 66875
        NUMBER_OF_BYTES : 34483619
        _STATISTICS_WRITING_APP: mkvpropedit v66.0.0 ('Josie') 64-bit
        _STATISTICS_WRITING_DATE_UTC: 2025-05-30 12:27:03
        encoder         : Lavc61.19.100 pcm_s16le
frame=  175 fps=0.0 q=-0.0 size=N/A time=00:00:07.29 bitrate=N/A speed=13.8x    frame=  415 fps=401 q=-0.0 size=N/A time=00:00:17.30 bitrate=N/A speed=16.7x    frame=  643 fps=412 q=-0.0 size=N/A time=00:00:26.81 bitrate=N/A speed=17.2x    frame=  829 fps=401 q=-0.0 size=N/A time=00:00:34.57 bitrate=N/A speed=16.7x    frame= 1080 fps=417 q=-0.0 size=N/A time=00:00:45.04 bitrate=N/A speed=17.4x    frame= 1315 fps=425 q=-0.0 size=N/A time=00:00:54.84 bitrate=N/A speed=17.7x    frame= 1592 fps=440 q=-0.0 size=N/A time=00:01:06.39 bitrate=N/A speed=18.4x    frame= 1845 fps=447 q=-0.0 size=N/A time=00:01:16.95 bitrate=N/A speed=18.6x    frame= 2087 fps=449 q=-0.0 size=N/A time=00:01:27.04 bitrate=N/A speed=18.7x    frame= 2288 fps=444 q=-0.0 size=N/A time=00:01:35.42 bitrate=N/A speed=18.5x    frame= 2541 fps=447 q=-0.0 size=N/A time=00:01:45.98 bitrate=N/A speed=18.7x    frame= 2713 fps=438 q=-0.0 size=N/A time=00:01:53.15 bitrate=N/A speed=18.3x    frame= 2920 fps=435 q=-0.0 size=N/A time=00:02:01.78 bitrate=N/A speed=18.1x    frame= 3121 fps=432 q=-0.0 size=N/A time=00:02:10.17 bitrate=N/A speed=  18x    frame= 3342 fps=432 q=-0.0 size=N/A time=00:02:19.38 bitrate=N/A speed=  18x    frame= 3513 fps=425 q=-0.0 size=N/A time=00:02:26.52 bitrate=N/A speed=17.7x    frame= 3683 fps=420 q=-0.0 size=N/A time=00:02:33.61 bitrate=N/A speed=17.5x    frame= 3862 fps=416 q=-0.0 size=N/A time=00:02:41.07 bitrate=N/A speed=17.3x    frame= 4067 fps=415 q=-0.0 size=N/A time=00:02:49.62 bitrate=N/A speed=17.3x    frame= 4246 fps=412 q=-0.0 size=N/A time=00:02:57.09 bitrate=N/A speed=17.2x    frame= 4452 fps=411 q=-0.0 size=N/A time=00:03:05.68 bitrate=N/A speed=17.1x    frame= 4648 fps=410 q=-0.0 size=N/A time=00:03:13.86 bitrate=N/A speed=17.1x    frame= 4858 fps=409 q=-0.0 size=N/A time=00:03:22.61 bitrate=N/A speed=17.1x    frame= 5061 fps=409 q=-0.0 size=N/A time=00:03:31.08 bitrate=N/A speed=17.1x    frame= 5275 fps=409 q=-0.0 size=N/A time=00:03:40.01 bitrate=N/A speed=17.1x    frame= 5518 fps=412 q=-0.0 size=N/A time=00:03:50.14 bitrate=N/A speed=17.2x    frame= 5782 fps=415 q=-0.0 size=N/A time=00:04:01.15 bitrate=N/A speed=17.3x    frame= 6039 fps=418 q=-0.0 size=N/A time=00:04:11.87 bitrate=N/A speed=17.4x    frame= 6248 fps=417 q=-0.0 size=N/A time=00:04:20.59 bitrate=N/A speed=17.4x    frame= 6418 fps=415 q=-0.0 size=N/A time=00:04:27.68 bitrate=N/A speed=17.3x    frame= 6623 fps=414 q=-0.0 size=N/A time=00:04:36.23 bitrate=N/A speed=17.3x    frame= 6835 fps=414 q=-0.0 size=N/A time=00:04:45.07 bitrate=N/A speed=17.3x    frame= 7069 fps=415 q=-0.0 size=N/A time=00:04:54.83 bitrate=N/A speed=17.3x    frame= 7279 fps=415 q=-0.0 size=N/A time=00:05:03.59 bitrate=N/A speed=17.3x    frame= 7542 fps=418 q=-0.0 size=N/A time=00:05:14.56 bitrate=N/A speed=17.4x    frame= 7804 fps=420 q=-0.0 size=N/A time=00:05:25.49 bitrate=N/A speed=17.5x    frame= 8036 fps=421 q=-0.0 size=N/A time=00:05:35.16 bitrate=N/A speed=17.6x    frame= 8292 fps=423 q=-0.0 size=N/A time=00:05:45.84 bitrate=N/A speed=17.6x    frame= 8530 fps=424 q=-0.0 size=N/A time=00:05:55.77 bitrate=N/A speed=17.7x    frame= 8754 fps=424 q=-0.0 size=N/A time=00:06:05.11 bitrate=N/A speed=17.7x    frame= 9009 fps=426 q=-0.0 size=N/A time=00:06:15.75 bitrate=N/A speed=17.8x    frame= 9224 fps=426 q=-0.0 size=N/A time=00:06:24.71 bitrate=N/A speed=17.8x    frame= 9465 fps=427 q=-0.0 size=N/A time=00:06:34.76 bitrate=N/A speed=17.8x    frame= 9724 fps=429 q=-0.0 size=N/A time=00:06:45.57 bitrate=N/A speed=17.9x    frame= 9968 fps=429 q=-0.0 size=N/A time=00:06:55.74 bitrate=N/A speed=17.9x    frame=10199 fps=430 q=-0.0 size=N/A time=00:07:05.38 bitrate=N/A speed=17.9x    frame=10467 fps=432 q=-0.0 size=N/A time=00:07:16.56 bitrate=N/A speed=  18x    frame=10725 fps=433 q=-0.0 size=N/A time=00:07:27.32 bitrate=N/A speed=18.1x    frame=10997 fps=435 q=-0.0 size=N/A time=00:07:38.66 bitrate=N/A speed=18.1x    frame=11218 fps=435 q=-0.0 size=N/A time=00:07:47.88 bitrate=N/A speed=18.1x    frame=11439 fps=435 q=-0.0 size=N/A time=00:07:57.10 bitrate=N/A speed=18.1x    frame=11680 fps=435 q=-0.0 size=N/A time=00:08:07.15 bitrate=N/A speed=18.2x    frame=11924 fps=436 q=-0.0 size=N/A time=00:08:17.33 bitrate=N/A speed=18.2x    frame=12158 fps=437 q=-0.0 size=N/A time=00:08:27.08 bitrate=N/A speed=18.2x    frame=12314 fps=434 q=-0.0 size=N/A time=00:08:33.59 bitrate=N/A speed=18.1x    frame=12561 fps=435 q=-0.0 size=N/A time=00:08:43.89 bitrate=N/A speed=18.1x    frame=12801 fps=435 q=-0.0 size=N/A time=00:08:53.90 bitrate=N/A speed=18.2x    frame=13025 fps=436 q=-0.0 size=N/A time=00:09:03.25 bitrate=N/A speed=18.2x    frame=13284 fps=437 q=-0.0 size=N/A time=00:09:14.05 bitrate=N/A speed=18.2x    frame=13536 fps=437 q=-0.0 size=N/A time=00:09:24.56 bitrate=N/A speed=18.2x    frame=13790 fps=438 q=-0.0 size=N/A time=00:09:35.15 bitrate=N/A speed=18.3x    frame=14056 fps=439 q=-0.0 size=N/A time=00:09:46.25 bitrate=N/A speed=18.3x    frame=14299 fps=440 q=-0.0 size=N/A time=00:09:56.38 bitrate=N/A speed=18.3x    frame=14569 fps=441 q=-0.0 size=N/A time=00:10:07.64 bitrate=N/A speed=18.4x    frame=14820 fps=442 q=-0.0 size=N/A time=00:10:18.11 bitrate=N/A speed=18.4x    frame=15087 fps=443 q=-0.0 size=N/A time=00:10:29.25 bitrate=N/A speed=18.5x    frame=15336 fps=444 q=-0.0 size=N/A time=00:10:39.63 bitrate=N/A speed=18.5x    frame=15586 fps=444 q=-0.0 size=N/A time=00:10:50.06 bitrate=N/A speed=18.5x    frame=15731 fps=442 q=-0.0 size=N/A time=00:10:56.11 bitrate=N/A speed=18.4x    frame=15899 fps=440 q=-0.0 size=N/A time=00:11:03.12 bitrate=N/A speed=18.4x    frame=16102 fps=440 q=-0.0 size=N/A time=00:11:11.58 bitrate=N/A speed=18.3x    frame=16326 fps=439 q=-0.0 size=N/A time=00:11:20.93 bitrate=N/A speed=18.3x    frame=16521 fps=439 q=-0.0 size=N/A time=00:11:29.06 bitrate=N/A speed=18.3x    frame=16735 fps=438 q=-0.0 size=N/A time=00:11:37.98 bitrate=N/A speed=18.3x    frame=16987 fps=439 q=-0.0 size=N/A time=00:11:48.49 bitrate=N/A speed=18.3x    frame=17219 fps=439 q=-0.0 size=N/A time=00:11:58.17 bitrate=N/A speed=18.3x    frame=17485 fps=440 q=-0.0 size=N/A time=00:12:09.27 bitrate=N/A speed=18.4x    frame=17682 fps=439 q=-0.0 size=N/A time=00:12:17.48 bitrate=N/A speed=18.3x    frame=17962 fps=441 q=-0.0 size=N/A time=00:12:29.16 bitrate=N/A speed=18.4x    frame=18215 fps=441 q=-0.0 size=N/A time=00:12:39.71 bitrate=N/A speed=18.4x    frame=18465 fps=442 q=-0.0 size=N/A time=00:12:50.14 bitrate=N/A speed=18.4x    frame=18705 fps=442 q=-0.0 size=N/A time=00:13:00.15 bitrate=N/A speed=18.4x    frame=18951 fps=443 q=-0.0 size=N/A time=00:13:10.41 bitrate=N/A speed=18.5x    frame=19199 fps=443 q=-0.0 size=N/A time=00:13:20.75 bitrate=N/A speed=18.5x    frame=19462 fps=444 q=-0.0 size=N/A time=00:13:31.72 bitrate=N/A speed=18.5x    frame=19720 fps=445 q=-0.0 size=N/A time=00:13:42.48 bitrate=N/A speed=18.5x    frame=19965 fps=445 q=-0.0 size=N/A time=00:13:52.70 bitrate=N/A speed=18.6x    frame=20193 fps=445 q=-0.0 size=N/A time=00:14:02.21 bitrate=N/A speed=18.6x    frame=20432 fps=445 q=-0.0 size=N/A time=00:14:12.18 bitrate=N/A speed=18.6x    frame=20659 fps=445 q=-0.0 size=N/A time=00:14:21.65 bitrate=N/A speed=18.6x    frame=20892 fps=445 q=-0.0 size=N/A time=00:14:31.37 bitrate=N/A speed=18.6x    frame=21110 fps=445 q=-0.0 size=N/A time=00:14:40.46 bitrate=N/A speed=18.6x    frame=21336 fps=445 q=-0.0 size=N/A time=00:14:49.88 bitrate=N/A speed=18.6x    frame=21526 fps=444 q=-0.0 size=N/A time=00:14:57.81 bitrate=N/A speed=18.5x    frame=21707 fps=443 q=-0.0 size=N/A time=00:15:05.36 bitrate=N/A speed=18.5x    frame=21910 fps=442 q=-0.0 size=N/A time=00:15:13.82 bitrate=N/A speed=18.5x    frame=22118 fps=442 q=-0.0 size=N/A time=00:15:22.50 bitrate=N/A speed=18.4x    frame=22307 fps=441 q=-0.0 size=N/A time=00:15:30.38 bitrate=N/A speed=18.4x    frame=22515 fps=441 q=-0.0 size=N/A time=00:15:39.06 bitrate=N/A speed=18.4x    frame=22721 fps=440 q=-0.0 size=N/A time=00:15:47.65 bitrate=N/A speed=18.4x    frame=22895 fps=439 q=-0.0 size=N/A time=00:15:54.91 bitrate=N/A speed=18.3x    frame=23100 fps=439 q=-0.0 size=N/A time=00:16:03.46 bitrate=N/A speed=18.3x    frame=23289 fps=438 q=-0.0 size=N/A time=00:16:11.34 bitrate=N/A speed=18.3x    frame=23508 fps=438 q=-0.0 size=N/A time=00:16:20.47 bitrate=N/A speed=18.3x    frame=23674 fps=437 q=-0.0 size=N/A time=00:16:27.40 bitrate=N/A speed=18.2x    frame=23917 fps=437 q=-0.0 size=N/A time=00:16:37.53 bitrate=N/A speed=18.2x    frame=24170 fps=438 q=-0.0 size=N/A time=00:16:48.09 bitrate=N/A speed=18.3x    frame=24388 fps=438 q=-0.0 size=N/A time=00:16:57.18 bitrate=N/A speed=18.3x    frame=24628 fps=438 q=-0.0 size=N/A time=00:17:07.19 bitrate=N/A speed=18.3x    frame=24887 fps=439 q=-0.0 size=N/A time=00:17:17.99 bitrate=N/A speed=18.3x    frame=25142 fps=439 q=-0.0 size=N/A time=00:17:28.63 bitrate=N/A speed=18.3x    frame=25393 fps=439 q=-0.0 size=N/A time=00:17:39.09 bitrate=N/A speed=18.3x    frame=25577 fps=439 q=-0.0 size=N/A time=00:17:46.77 bitrate=N/A speed=18.3x    frame=25762 fps=438 q=-0.0 size=N/A time=00:17:54.49 bitrate=N/A speed=18.3x    frame=26016 fps=438 q=-0.0 size=N/A time=00:18:05.08 bitrate=N/A speed=18.3x    frame=26250 fps=438 q=-0.0 size=N/A time=00:18:14.84 bitrate=N/A speed=18.3x    frame=26481 fps=439 q=-0.0 size=N/A time=00:18:24.47 bitrate=N/A speed=18.3x    frame=26724 fps=439 q=-0.0 size=N/A time=00:18:34.61 bitrate=N/A speed=18.3x    frame=26989 fps=439 q=-0.0 size=N/A time=00:18:45.66 bitrate=N/A speed=18.3x    frame=27244 fps=440 q=-0.0 size=N/A time=00:18:56.30 bitrate=N/A speed=18.3x    frame=27507 fps=440 q=-0.0 size=N/A time=00:19:07.27 bitrate=N/A speed=18.4x    frame=27765 fps=441 q=-0.0 size=N/A time=00:19:18.03 bitrate=N/A speed=18.4x    frame=28009 fps=441 q=-0.0 size=N/A time=00:19:28.20 bitrate=N/A speed=18.4x    frame=28285 fps=442 q=-0.0 size=N/A time=00:19:39.72 bitrate=N/A speed=18.4x    frame=28530 fps=442 q=-0.0 size=N/A time=00:19:49.93 bitrate=N/A speed=18.4x    frame=28775 fps=442 q=-0.0 size=N/A time=00:20:00.15 bitrate=N/A speed=18.5x    frame=29023 fps=443 q=-0.0 size=N/A time=00:20:10.50 bitrate=N/A speed=18.5x    frame=29261 fps=443 q=-0.0 size=N/A time=00:20:20.42 bitrate=N/A speed=18.5x    frame=29505 fps=443 q=-0.0 size=N/A time=00:20:30.60 bitrate=N/A speed=18.5x    frame=29698 fps=443 q=-0.0 size=N/A time=00:20:38.65 bitrate=N/A speed=18.5x    frame=29933 fps=443 q=-0.0 size=N/A time=00:20:48.45 bitrate=N/A speed=18.5x    frame=30174 fps=443 q=-0.0 size=N/A time=00:20:58.50 bitrate=N/A speed=18.5x    frame=30405 fps=443 q=-0.0 size=N/A time=00:21:08.14 bitrate=N/A speed=18.5x    frame=30617 fps=443 q=-0.0 size=N/A time=00:21:16.98 bitrate=N/A speed=18.5x    frame=30846 fps=443 q=-0.0 size=N/A time=00:21:26.53 bitrate=N/A speed=18.5x    frame=31075 fps=443 q=-0.0 size=N/A time=00:21:36.08 bitrate=N/A speed=18.5x    frame=31304 fps=443 q=-0.0 size=N/A time=00:21:45.63 bitrate=N/A speed=18.5x    frame=31528 fps=442 q=-0.0 size=N/A time=00:21:54.98 bitrate=N/A speed=18.5x    frame=31789 fps=443 q=-0.0 size=N/A time=00:22:05.86 bitrate=N/A speed=18.5x    frame=31946 fps=442 q=-0.0 size=N/A time=00:22:12.41 bitrate=N/A speed=18.4x    frame=32104 fps=441 q=-0.0 size=N/A time=00:22:19.00 bitrate=N/A speed=18.4x    frame=32251 fps=440 q=-0.0 size=N/A time=00:22:25.13 bitrate=N/A speed=18.3x    frame=32393 fps=439 q=-0.0 size=N/A time=00:22:31.05 bitrate=N/A speed=18.3x    frame=32546 fps=438 q=-0.0 size=N/A time=00:22:37.43 bitrate=N/A speed=18.3x    frame=32704 fps=437 q=-0.0 size=N/A time=00:22:44.02 bitrate=N/A speed=18.2x    frame=32873 fps=436 q=-0.0 size=N/A time=00:22:51.07 bitrate=N/A speed=18.2x    frame=33062 fps=436 q=-0.0 size=N/A time=00:22:58.96 bitrate=N/A speed=18.2x    frame=33239 fps=435 q=-0.0 size=N/A time=00:23:06.34 bitrate=N/A speed=18.1x    frame=33405 fps=434 q=-0.0 size=N/A time=00:23:13.26 bitrate=N/A speed=18.1x    frame=33566 fps=433 q=-0.0 size=N/A time=00:23:19.98 bitrate=N/A speed=18.1x    frame=33763 fps=433 q=-0.0 size=N/A time=00:23:28.19 bitrate=N/A speed=18.1x    frame=33959 fps=433 q=-0.0 size=N/A time=00:23:36.37 bitrate=N/A speed=  18x    frame=34176 fps=433 q=-0.0 size=N/A time=00:23:45.42 bitrate=N/A speed=  18x    [Parsed_ssim_10 @ 0000020460af8d40] SSIM Y:0.992614 (21.316136) U:0.991844 (20.885299) V:0.991850 (20.888280) All:0.992359 (21.168254)
[out#0/null @ 00000204542af2c0] video:14697KiB audio:267500KiB subtitle:0KiB other streams:0KiB global headers:0KiB muxing overhead: unknown
frame=34203 fps=433 q=-0.0 Lsize=N/A time=00:23:46.55 bitrate=N/A speed=  18x    
